<svg xmlns="http://www.w3.org/2000/svg" viewBox="0 0 48 48" width="24px" height="24px">
  <path fill="#4285F4" d="M24 9.5c3.3 0 6.2 1.2 8.4 3.2l6.3-6.3C34.5 2.8 29.5 0 24 0 14.8 0 7 5.8 4 13.9l7.3 5.7C12.8 12.7 17.9 9.5 24 9.5z"/>
  <path fill="#34A853" d="M46.6 24.4c0-1.3-.1-2.6-.3-3.9H24v7.4h12.7c-.6 3.1-2.5 5.7-5.2 7.5l7.8 6.1c4.5-4.1 7.3-10.2 7.3-17.1z"/>
  <path fill="#FBBC05" d="M11.3 28.1c-1.4-3.2-1.4-6.9 0-10.1L4 13.9C-1.3 23 2.3 35 11.3 41l7.8-6.1c-2.6-1.7-4.6-4.4-5.2-7.5z"/>
  <path fill="#EA4335" d="M24 48c6.5 0 12-2.1 16.1-5.8L32.3 36c-2.2 1.4-4.8 2.2-7.6 2.2-6 0-11-4-12.8-9.6l-7.8 6.1C7 42.8 14.8 48 24 48z"/>
  <path fill="none" d="M0 0h48v48H0z"/>
</svg>
